<mxfile host="Electron" modified="2023-05-13T20:27:35.710Z" agent="Mozilla/5.0 (X11; Linux x86_64) AppleWebKit/537.36 (KHTML, like Gecko) draw.io/21.2.8 Chrome/112.0.5615.165 Electron/24.2.0 Safari/537.36" etag="sGZ0A_r0Sdu6q60tbYZ6" version="21.2.8" type="device">
  <diagram name="Page-1" id="XtLxVLZjbir1pLWrPofs">
    <mxGraphModel dx="1434" dy="849" grid="1" gridSize="10" guides="1" tooltips="1" connect="1" arrows="1" fold="1" page="1" pageScale="1" pageWidth="850" pageHeight="1100" math="0" shadow="0">
      <root>
        <mxCell id="0" />
        <mxCell id="1" parent="0" />
        <mxCell id="TK4S2It5wgBxtZBaVFBN-1" value="0" style="ellipse;whiteSpace=wrap;html=1;aspect=fixed;" parent="1" vertex="1">
          <mxGeometry x="130" y="550" width="50" height="50" as="geometry" />
        </mxCell>
        <mxCell id="TK4S2It5wgBxtZBaVFBN-6" value="2" style="ellipse;whiteSpace=wrap;html=1;aspect=fixed;" parent="1" vertex="1">
          <mxGeometry x="230" y="550" width="50" height="50" as="geometry" />
        </mxCell>
        <mxCell id="TK4S2It5wgBxtZBaVFBN-7" value="1" style="ellipse;whiteSpace=wrap;html=1;aspect=fixed;" parent="1" vertex="1">
          <mxGeometry x="180" y="450" width="50" height="50" as="geometry" />
        </mxCell>
        <mxCell id="TK4S2It5wgBxtZBaVFBN-9" value="3" style="ellipse;whiteSpace=wrap;html=1;aspect=fixed;" parent="1" vertex="1">
          <mxGeometry x="280" y="350" width="50" height="50" as="geometry" />
        </mxCell>
        <mxCell id="TK4S2It5wgBxtZBaVFBN-10" value="5" style="ellipse;whiteSpace=wrap;html=1;aspect=fixed;" parent="1" vertex="1">
          <mxGeometry x="375" y="450" width="50" height="50" as="geometry" />
        </mxCell>
        <mxCell id="TK4S2It5wgBxtZBaVFBN-11" value="4" style="ellipse;whiteSpace=wrap;html=1;aspect=fixed;" parent="1" vertex="1">
          <mxGeometry x="325" y="550" width="50" height="50" as="geometry" />
        </mxCell>
        <mxCell id="TK4S2It5wgBxtZBaVFBN-15" value="" style="endArrow=none;html=1;rounded=0;" parent="1" source="TK4S2It5wgBxtZBaVFBN-7" target="TK4S2It5wgBxtZBaVFBN-9" edge="1">
          <mxGeometry width="50" height="50" relative="1" as="geometry">
            <mxPoint x="390" y="550" as="sourcePoint" />
            <mxPoint x="440" y="500" as="targetPoint" />
          </mxGeometry>
        </mxCell>
        <mxCell id="TK4S2It5wgBxtZBaVFBN-16" value="" style="endArrow=none;html=1;rounded=0;" parent="1" source="TK4S2It5wgBxtZBaVFBN-10" target="TK4S2It5wgBxtZBaVFBN-9" edge="1">
          <mxGeometry width="50" height="50" relative="1" as="geometry">
            <mxPoint x="223" y="467" as="sourcePoint" />
            <mxPoint x="287" y="403" as="targetPoint" />
          </mxGeometry>
        </mxCell>
        <mxCell id="TK4S2It5wgBxtZBaVFBN-17" value="" style="endArrow=none;html=1;rounded=0;" parent="1" source="TK4S2It5wgBxtZBaVFBN-11" target="TK4S2It5wgBxtZBaVFBN-10" edge="1">
          <mxGeometry width="50" height="50" relative="1" as="geometry">
            <mxPoint x="387" y="467" as="sourcePoint" />
            <mxPoint x="323" y="403" as="targetPoint" />
          </mxGeometry>
        </mxCell>
        <mxCell id="TK4S2It5wgBxtZBaVFBN-18" value="" style="endArrow=none;html=1;rounded=0;" parent="1" source="TK4S2It5wgBxtZBaVFBN-6" target="TK4S2It5wgBxtZBaVFBN-7" edge="1">
          <mxGeometry width="50" height="50" relative="1" as="geometry">
            <mxPoint x="358" y="564" as="sourcePoint" />
            <mxPoint x="392" y="506" as="targetPoint" />
          </mxGeometry>
        </mxCell>
        <mxCell id="TK4S2It5wgBxtZBaVFBN-19" value="" style="endArrow=none;html=1;rounded=0;" parent="1" source="TK4S2It5wgBxtZBaVFBN-1" target="TK4S2It5wgBxtZBaVFBN-7" edge="1">
          <mxGeometry width="50" height="50" relative="1" as="geometry">
            <mxPoint x="244" y="563" as="sourcePoint" />
            <mxPoint x="216" y="507" as="targetPoint" />
          </mxGeometry>
        </mxCell>
        <mxCell id="TK4S2It5wgBxtZBaVFBN-20" value="6" style="ellipse;whiteSpace=wrap;html=1;aspect=fixed;" parent="1" vertex="1">
          <mxGeometry x="425" y="550" width="50" height="50" as="geometry" />
        </mxCell>
        <mxCell id="TK4S2It5wgBxtZBaVFBN-21" value="" style="endArrow=none;html=1;rounded=0;" parent="1" source="TK4S2It5wgBxtZBaVFBN-10" target="TK4S2It5wgBxtZBaVFBN-20" edge="1">
          <mxGeometry width="50" height="50" relative="1" as="geometry">
            <mxPoint x="390" y="550" as="sourcePoint" />
            <mxPoint x="440" y="500" as="targetPoint" />
          </mxGeometry>
        </mxCell>
        <mxCell id="TK4S2It5wgBxtZBaVFBN-34" value="0" style="ellipse;whiteSpace=wrap;html=1;aspect=fixed;" parent="1" vertex="1">
          <mxGeometry x="640" y="550" width="50" height="50" as="geometry" />
        </mxCell>
        <mxCell id="TK4S2It5wgBxtZBaVFBN-35" value="2" style="ellipse;whiteSpace=wrap;html=1;aspect=fixed;" parent="1" vertex="1">
          <mxGeometry x="740" y="550" width="50" height="50" as="geometry" />
        </mxCell>
        <mxCell id="TK4S2It5wgBxtZBaVFBN-36" value="1" style="ellipse;whiteSpace=wrap;html=1;aspect=fixed;" parent="1" vertex="1">
          <mxGeometry x="690" y="450" width="50" height="50" as="geometry" />
        </mxCell>
        <mxCell id="TK4S2It5wgBxtZBaVFBN-37" value="3" style="ellipse;whiteSpace=wrap;html=1;aspect=fixed;" parent="1" vertex="1">
          <mxGeometry x="790" y="350" width="50" height="50" as="geometry" />
        </mxCell>
        <mxCell id="TK4S2It5wgBxtZBaVFBN-38" value="5" style="ellipse;whiteSpace=wrap;html=1;aspect=fixed;" parent="1" vertex="1">
          <mxGeometry x="885" y="450" width="50" height="50" as="geometry" />
        </mxCell>
        <mxCell id="TK4S2It5wgBxtZBaVFBN-39" value="4" style="ellipse;whiteSpace=wrap;html=1;aspect=fixed;" parent="1" vertex="1">
          <mxGeometry x="835" y="550" width="50" height="50" as="geometry" />
        </mxCell>
        <mxCell id="TK4S2It5wgBxtZBaVFBN-40" value="" style="endArrow=none;html=1;rounded=0;" parent="1" source="TK4S2It5wgBxtZBaVFBN-36" target="TK4S2It5wgBxtZBaVFBN-37" edge="1">
          <mxGeometry width="50" height="50" relative="1" as="geometry">
            <mxPoint x="900" y="550" as="sourcePoint" />
            <mxPoint x="950" y="500" as="targetPoint" />
          </mxGeometry>
        </mxCell>
        <mxCell id="TK4S2It5wgBxtZBaVFBN-41" value="" style="endArrow=none;html=1;rounded=0;" parent="1" source="TK4S2It5wgBxtZBaVFBN-38" target="TK4S2It5wgBxtZBaVFBN-37" edge="1">
          <mxGeometry width="50" height="50" relative="1" as="geometry">
            <mxPoint x="733" y="467" as="sourcePoint" />
            <mxPoint x="797" y="403" as="targetPoint" />
          </mxGeometry>
        </mxCell>
        <mxCell id="TK4S2It5wgBxtZBaVFBN-42" value="" style="endArrow=none;html=1;rounded=0;" parent="1" source="TK4S2It5wgBxtZBaVFBN-39" target="TK4S2It5wgBxtZBaVFBN-38" edge="1">
          <mxGeometry width="50" height="50" relative="1" as="geometry">
            <mxPoint x="897" y="467" as="sourcePoint" />
            <mxPoint x="833" y="403" as="targetPoint" />
          </mxGeometry>
        </mxCell>
        <mxCell id="TK4S2It5wgBxtZBaVFBN-43" value="" style="endArrow=none;html=1;rounded=0;" parent="1" source="TK4S2It5wgBxtZBaVFBN-35" target="TK4S2It5wgBxtZBaVFBN-36" edge="1">
          <mxGeometry width="50" height="50" relative="1" as="geometry">
            <mxPoint x="868" y="564" as="sourcePoint" />
            <mxPoint x="902" y="506" as="targetPoint" />
          </mxGeometry>
        </mxCell>
        <mxCell id="TK4S2It5wgBxtZBaVFBN-44" value="" style="endArrow=none;html=1;rounded=0;" parent="1" source="TK4S2It5wgBxtZBaVFBN-34" target="TK4S2It5wgBxtZBaVFBN-36" edge="1">
          <mxGeometry width="50" height="50" relative="1" as="geometry">
            <mxPoint x="754" y="563" as="sourcePoint" />
            <mxPoint x="726" y="507" as="targetPoint" />
          </mxGeometry>
        </mxCell>
        <mxCell id="TK4S2It5wgBxtZBaVFBN-45" value="6" style="ellipse;whiteSpace=wrap;html=1;aspect=fixed;" parent="1" vertex="1">
          <mxGeometry x="935" y="550" width="50" height="50" as="geometry" />
        </mxCell>
        <mxCell id="TK4S2It5wgBxtZBaVFBN-46" value="" style="endArrow=none;html=1;rounded=0;" parent="1" source="TK4S2It5wgBxtZBaVFBN-38" target="TK4S2It5wgBxtZBaVFBN-45" edge="1">
          <mxGeometry width="50" height="50" relative="1" as="geometry">
            <mxPoint x="900" y="550" as="sourcePoint" />
            <mxPoint x="950" y="500" as="targetPoint" />
          </mxGeometry>
        </mxCell>
        <mxCell id="TK4S2It5wgBxtZBaVFBN-48" value="" style="endArrow=none;html=1;strokeWidth=3;rounded=0;curved=1;fillColor=#0050ef;strokeColor=#001DBC;" parent="1" source="TK4S2It5wgBxtZBaVFBN-7" target="TK4S2It5wgBxtZBaVFBN-38" edge="1">
          <mxGeometry width="50" height="50" relative="1" as="geometry">
            <mxPoint x="430" y="550" as="sourcePoint" />
            <mxPoint x="480" y="500" as="targetPoint" />
            <Array as="points">
              <mxPoint x="380" y="670" />
              <mxPoint x="650" y="690" />
              <mxPoint x="770" y="630" />
            </Array>
          </mxGeometry>
        </mxCell>
        <mxCell id="TK4S2It5wgBxtZBaVFBN-49" value="" style="endArrow=none;html=1;strokeWidth=3;rounded=0;curved=1;fillColor=#fad9d5;strokeColor=#ff006f;" parent="1" source="TK4S2It5wgBxtZBaVFBN-6" target="TK4S2It5wgBxtZBaVFBN-37" edge="1">
          <mxGeometry width="50" height="50" relative="1" as="geometry">
            <mxPoint x="430" y="550" as="sourcePoint" />
            <mxPoint x="480" y="500" as="targetPoint" />
          </mxGeometry>
        </mxCell>
        <mxCell id="TK4S2It5wgBxtZBaVFBN-50" value="" style="endArrow=none;html=1;strokeWidth=3;rounded=0;curved=1;fillColor=#e51400;strokeColor=#B20000;" parent="1" source="TK4S2It5wgBxtZBaVFBN-9" target="TK4S2It5wgBxtZBaVFBN-36" edge="1">
          <mxGeometry width="50" height="50" relative="1" as="geometry">
            <mxPoint x="430" y="550" as="sourcePoint" />
            <mxPoint x="480" y="500" as="targetPoint" />
          </mxGeometry>
        </mxCell>
        <mxCell id="TK4S2It5wgBxtZBaVFBN-51" value="" style="endArrow=none;html=1;strokeWidth=3;rounded=0;curved=1;fillColor=#e3c800;strokeColor=#B09500;" parent="1" source="TK4S2It5wgBxtZBaVFBN-11" target="TK4S2It5wgBxtZBaVFBN-34" edge="1">
          <mxGeometry width="50" height="50" relative="1" as="geometry">
            <mxPoint x="430" y="550" as="sourcePoint" />
            <mxPoint x="480" y="520" as="targetPoint" />
            <Array as="points">
              <mxPoint x="460" y="660" />
            </Array>
          </mxGeometry>
        </mxCell>
        <mxCell id="TK4S2It5wgBxtZBaVFBN-53" value="" style="endArrow=none;html=1;strokeWidth=3;rounded=0;curved=1;fillColor=#ffff88;strokeColor=#36393d;" parent="1" source="TK4S2It5wgBxtZBaVFBN-10" target="TK4S2It5wgBxtZBaVFBN-39" edge="1">
          <mxGeometry width="50" height="50" relative="1" as="geometry">
            <mxPoint x="430" y="550" as="sourcePoint" />
            <mxPoint x="480" y="500" as="targetPoint" />
            <Array as="points">
              <mxPoint x="550" y="670" />
            </Array>
          </mxGeometry>
        </mxCell>
        <mxCell id="TK4S2It5wgBxtZBaVFBN-54" value="" style="endArrow=none;html=1;strokeWidth=3;fillColor=#a20025;strokeColor=#6F0000;curved=1;" parent="1" source="TK4S2It5wgBxtZBaVFBN-20" target="TK4S2It5wgBxtZBaVFBN-35" edge="1">
          <mxGeometry width="50" height="50" relative="1" as="geometry">
            <mxPoint x="430" y="550" as="sourcePoint" />
            <mxPoint x="480" y="500" as="targetPoint" />
            <Array as="points">
              <mxPoint x="550" y="680" />
            </Array>
          </mxGeometry>
        </mxCell>
        <mxCell id="qd__LloNMrdxU8SXsz2h-1" value="" style="endArrow=none;html=1;strokeWidth=3;curved=1;fillColor=#60a917;strokeColor=#2D7600;" parent="1" source="TK4S2It5wgBxtZBaVFBN-1" target="TK4S2It5wgBxtZBaVFBN-45" edge="1">
          <mxGeometry width="50" height="50" relative="1" as="geometry">
            <mxPoint x="490" y="560" as="sourcePoint" />
            <mxPoint x="540" y="510" as="targetPoint" />
            <Array as="points">
              <mxPoint x="550" y="800" />
            </Array>
          </mxGeometry>
        </mxCell>
        <mxCell id="tq5L1RWi1muJnN_RKnBd-1" value="&lt;font style=&quot;font-size: 22px;&quot;&gt;A (index)&lt;/font&gt;" style="text;html=1;strokeColor=none;fillColor=none;align=center;verticalAlign=middle;whiteSpace=wrap;rounded=0;" parent="1" vertex="1">
          <mxGeometry x="252.5" y="290" width="105" height="30" as="geometry" />
        </mxCell>
        <mxCell id="tq5L1RWi1muJnN_RKnBd-2" value="&lt;font style=&quot;font-size: 22px;&quot;&gt;B (value)&lt;/font&gt;" style="text;html=1;strokeColor=none;fillColor=none;align=center;verticalAlign=middle;whiteSpace=wrap;rounded=0;" parent="1" vertex="1">
          <mxGeometry x="767.5" y="290" width="95" height="30" as="geometry" />
        </mxCell>
      </root>
    </mxGraphModel>
  </diagram>
</mxfile>
